{"title":"Geordie Shore Season 8 EP4 1080P WEB-DL","uid":10789381,"size":1629036064,"categoryP":"video","categoryS":"hd___tv_shows","magnet":"?xt=urn:btih:0db27f0be5af00c37bffcf8692d498c89eff10a5&amp;dn=Geordie+Shore+Season+8+EP4+1080P+WEB-DL&amp;tr=udp%3A%2F%2Ftracker.openbittorrent.com%3A80&amp;tr=udp%3A%2F%2Fopen.demonii.com%3A1337&amp;tr=udp%3A%2F%2Ftracker.coppersurfer.tk%3A6969&amp;tr=udp%3A%2F%2Fexodus.desync.com%3A6969","seeders":4,"leechers":0,"uploader":"jmanwf","files":1,"time":1408240501,"description":"Vicky and the girls are talking about Aaron when he overhears. A new lad joins the family\n\n\n\nFormat : MPEG-4\nFormat profile : Base Media / Version 2\nCodec ID : mp42\nFile size : 1.52 GiB\nDuration : 42mn 16s\nOverall bit rate mode : Variable\nOverall bit rate : 5 137 Kbps\nMovie name : 804\nAlbum : Geordie Shore, Season 8\nPart/Position : 1\nPart/Total : 1\nTrack name/Position : 4\nTrack name/Total : 14\nPerformer : Geordie Shore\nGenre : Reality TV\n\n\nVideo\nID : 2\nFormat : AVC\nFormat/Info : Advanced Video Codec\nFormat profile : &lt;a class=&quot;__cf_email__&quot; href=&quot;/cdn-cgi/l/email-protection&quot; data-cfemail=&quot;652d0c020d2529514b55&quot;&gt;[email&amp;#160;protected]&lt;/a&gt;&lt;script cf-hash='f9e31' type=&quot;text/javascript&quot;&gt;\n/* &lt;![CDATA[ */!function(){try{var t=&quot;currentScript&quot;in document?document.currentScript:function(){for(var t=document.getElementsByTagName(&quot;script&quot;),e=t.length;e--;)if(t[e].getAttribute(&quot;cf-hash&quot;))return t[e]}();if(t&amp;&amp;t.previousSibling){var e,r,n,i,c=t.previousSibling,a=c.getAttribute(&quot;data-cfemail&quot;);if(a){for(e=&quot;&quot;,r=parseInt(a.substr(0,2),16),n=2;a.length-n;n+=2)i=parseInt(a.substr(n,2),16)^r,e+=String.fromCharCode(i);e=document.createTextNode(e),c.parentNode.replaceChild(e,c)}}}catch(u){}}();/* ]]&gt; */&lt;/script&gt;\nFormat settings, CABAC : Yes\nFormat settings, ReFrames : 4 frames\nCodec ID : avc1\nCodec ID/Info : Advanced Video Coding\nDuration : 42mn 16s\nBit rate : 5 006 Kbps\nWidth : 1 920 pixels\nHeight : 1 080 pixels\nDisplay aspect ratio : 16:9\nFrame rate : 25.000 fps\nColor space : YUV\nChroma subsampling : 4:2:0\nBit depth : 8 bits\nScan type : Progressive\nBits/(Pixel*Frame) : 0.097\nStream size : 1.48 GiB (97%)\nLanguage : English\nEncoded date : UTC 2014-08-14 03:57:56\nTagged date : UTC 2014-08-14 03:58:55\nColor primaries : BT.709\nTransfer characteristics : BT.709\nMatrix coefficients : BT.709\n\nAudio\nID : 1\nFormat : AAC\nFormat/Info : Advanced Audio Codec\nFormat profile : LC\nCodec ID : 40\nDuration : 42mn 16s\nBit rate mode : Variable\nBit rate : 127 Kbps\nMaximum bit rate : 198 Kbps\nChannel(s) : 2 channels\nChannel positions : Front: L R\nSampling rate : 48.0 KHz\nCompression mode : Lossy\nStream size : 38.5 MiB (2%)\nLanguage : English\nEncoded date : UTC 2014-08-14 03:55:54\nTagged date : UTC 2014-08-14 03:57:55\n\n\n\n\nEpisode Info\n\nEpisode number: 8x4\nAirdate: Tuesday August 12th, 2014","torrent":{"xt":"urn:btih:0db27f0be5af00c37bffcf8692d498c89eff10a5","amp;dn":"Geordie+Shore+Season+8+EP4+1080P+WEB-DL","amp;tr":["udp%3A%2F%2Ftracker.openbittorrent.com%3A80","udp%3A%2F%2Fopen.demonii.com%3A1337","udp%3A%2F%2Ftracker.coppersurfer.tk%3A6969","udp%3A%2F%2Fexodus.desync.com%3A6969"],"infoHash":"0db27f0be5af00c37bffcf8692d498c89eff10a5","infoHashBuffer":{"type":"Buffer","data":[13,178,127,11,229,175,0,195,123,255,207,134,146,212,152,200,158,255,16,165]},"announce":[],"urlList":[]}}